<?xml version="1.0" encoding="utf-8"?>
<!-- Generator: Adobe Illustrator 22.0.1, SVG Export Plug-In . SVG Version: 6.00 Build 0)  -->
<svg version="1.1" id="Capa_1" xmlns="http://www.w3.org/2000/svg" xmlns:xlink="http://www.w3.org/1999/xlink" x="0px" y="0px"
	 viewBox="0 0 320 60" style="enable-background:new 0 0 320 60;" xml:space="preserve">
<style type="text/css">
	.st0{fill:#ADACB2;}
	.st1{fill-rule:evenodd;clip-rule:evenodd;fill:#ADACB2;}
	.st2{fill:#FFFFFF;}
	.st3{fill-rule:evenodd;clip-rule:evenodd;fill:#FFFFFF;}
	.st4{clip-path:url(#SVGID_2_);}
	.st5{fill-rule:evenodd;clip-rule:evenodd;fill:#EE9D2E;}
	.st6{fill-rule:evenodd;clip-rule:evenodd;fill:#211915;}
	.st7{fill:#211915;}
	.st8{clip-path:url(#SVGID_4_);}
</style>
<g>
	<g>
		<g>
			<g>
				<g>
					<path class="st0" d="M25.8,37.7h1.6c2.5,0,4.5-0.6,4.5-3c0-2.4-2.3-2.9-4.8-2.9h-1.3V37.7z M25.8,23.6h0.3c3,0,4.7-0.3,4.7-2.8
						c0-2.4-1.5-2.7-4.6-2.7h-0.4V23.6z M15.6,10.4c0-0.3,0.3-0.6,0.6-0.6h4.7c6.8,0,20.2-0.5,20.2,9.3c0,3.3-0.9,5.8-3.6,7.7
						c3.1,1.6,4.9,5.9,4.8,8.9c-0.4,8.4-7.1,10.1-14.1,10.2c-2,0-3.9-0.1-5.3-0.1h-6.6c-0.3,0-0.6-0.3-0.6-0.6V10.4z"/>
				</g>
				<g>
					<path class="st0" d="M80.4,9.8l9-0.7c0.4,0,0.7,0.3,0.7,0.6V45c0,0.3-0.3,0.6-0.6,0.6l-9,0.9c-0.4,0-0.7-0.2-0.7-0.6V10.4
						C79.8,10.1,80.1,9.8,80.4,9.8z"/>
				</g>
				<g>
					<path class="st0" d="M104,45.6L95,46.5c-0.4,0-0.7-0.2-0.7-0.6v-36c0-0.6,0.5-0.9,1-0.5l22.4,18.5V10.7c0-0.3,0.3-0.6,0.6-0.6
						l9.1-0.8c0.4,0,0.7,0.2,0.7,0.6v36.6c0,0.7-0.5,0.9-1,0.5l-22.6-19v17C104.5,45.3,104.2,45.6,104,45.6z"/>
				</g>
				<g>
					<path class="st0" d="M45.5,9.8L54.4,9c0.4,0,0.7,0.2,0.7,0.6v21.5c0,2.7,0.1,6.4,5.5,6.4c3.4,0,5.1-2.8,5.1-5.5V10.5
						c0-0.3,0.3-0.6,0.6-0.6l8.9-1c0.4,0,0.7,0.2,0.7,0.6V32c0,4-0.3,7.3-3.8,10.5c-3,2.8-7.3,4.3-11.6,4.3c-4,0-8.6-0.8-11.6-3.4
						c-3.8-3.1-3.8-7-3.8-11.4V10.4C44.9,10.1,45.2,9.8,45.5,9.8z"/>
				</g>
			</g>
			<g>
				<g>
					<polygon class="st1" points="216.6,35.7 228.2,9.7 203.1,9.7 200.4,19.8 211.2,19.8 199.6,45.5 225.6,45.5 228.3,35.7 					"/>
				</g>
				<g>
					<path class="st1" d="M247.7,19c-4.3,0-6.8,2.9-6.8,6.3c0,3.5,2.5,10.9,6.8,10.9c5,0,6.8-7.4,6.8-10.9
						C254.5,21.9,252,19,247.7,19z M247.6,9c10.1,0,17.8,5.4,17.8,14.9c0,9.5-5.2,22.6-17.8,22.6c-12.9,0-17.8-13-17.8-22.6
						C229.7,14.3,235.9,9,247.6,9z"/>
				</g>
				<g>
					<path class="st1" d="M285.1,19c-4.3,0-6.8,2.9-6.8,6.3c0,3.5,2.5,10.9,6.8,10.9c5,0,6.8-7.4,6.8-10.9
						C291.9,21.9,289.4,19,285.1,19z M285,9c10.1,0,17.8,5.4,17.8,14.9c0,9.5-5.2,22.6-17.8,22.6c-12.9,0-17.8-13-17.8-22.6
						C267.1,14.3,273.3,9,285,9z"/>
				</g>
			</g>
		</g>
		<g>
			<path class="st1" d="M304.7,38.4c0.7,0,1.4,0.2,2,0.5c0.6,0.3,1.1,0.8,1.5,1.5c0.4,0.7,0.6,1.3,0.6,2c0,0.7-0.2,1.4-0.5,2
				c-0.4,0.6-0.9,1.1-1.5,1.5c-0.6,0.4-1.3,0.5-2,0.5c-0.7,0-1.4-0.2-2-0.5c-0.6-0.4-1.1-0.9-1.5-1.5c-0.4-0.6-0.5-1.3-0.5-2
				c0-0.7,0.2-1.4,0.5-2c0.4-0.7,0.9-1.2,1.5-1.5C303.3,38.5,304,38.4,304.7,38.4z M304.7,39.2c-0.6,0-1.1,0.1-1.6,0.4
				s-0.9,0.7-1.2,1.2c-0.3,0.5-0.4,1.1-0.4,1.6c0,0.6,0.1,1.1,0.4,1.6c0.3,0.5,0.7,0.9,1.2,1.2c0.5,0.3,1.1,0.4,1.6,0.4
				c0.6,0,1.1-0.1,1.6-0.4c0.5-0.3,0.9-0.7,1.2-1.2c0.3-0.5,0.4-1.1,0.4-1.6c0-0.6-0.1-1.1-0.4-1.6c-0.3-0.5-0.7-0.9-1.2-1.2
				C305.8,39.3,305.3,39.2,304.7,39.2z M302.9,44.6v-4.3h0.9c0.8,0,1.3,0,1.4,0c0.3,0,0.5,0.1,0.7,0.2c0.2,0.1,0.3,0.2,0.4,0.4
				c0.1,0.2,0.2,0.4,0.2,0.6c0,0.3-0.1,0.6-0.3,0.8c-0.2,0.2-0.5,0.4-0.9,0.4c0.1,0,0.2,0.1,0.3,0.2c0.1,0.1,0.2,0.2,0.3,0.3
				c0,0,0.1,0.2,0.3,0.5l0.5,0.9h-1.1l-0.4-0.7c-0.2-0.5-0.4-0.8-0.6-0.9c-0.2-0.1-0.4-0.2-0.6-0.2h-0.2v1.8H302.9z M303.7,42.2h0.4
				c0.5,0,0.8,0,0.9-0.1c0.1,0,0.2-0.1,0.3-0.2c0.1-0.1,0.1-0.2,0.1-0.3c0-0.1,0-0.2-0.1-0.3c-0.1-0.1-0.2-0.2-0.3-0.2
				c-0.1,0-0.4-0.1-0.9-0.1h-0.4V42.2z"/>
		</g>
	</g>
	<g>
		<g>
			<g>
				<path class="st2" d="M24.5,37.1h1.6c2.5,0,4.5-0.6,4.5-3c0-2.4-2.3-2.9-4.8-2.9h-1.3V37.1z M24.5,23h0.3c3,0,4.7-0.3,4.7-2.8
					c0-2.4-1.5-2.7-4.6-2.7h-0.4V23z M14.3,9.8c0-0.3,0.3-0.6,0.6-0.6h4.7c6.8,0,20.2-0.5,20.2,9.3c0,3.3-0.9,5.8-3.6,7.7
					c3.1,1.6,4.9,5.9,4.8,8.9c-0.4,8.4-7.1,10.1-14.1,10.2c-2,0-3.9-0.1-5.3-0.1h-6.6c-0.3,0-0.6-0.3-0.6-0.6V9.8z"/>
			</g>
			<g>
				<path class="st2" d="M79.1,9.2l9-0.7c0.4,0,0.7,0.3,0.7,0.6v35.3c0,0.3-0.3,0.6-0.6,0.6l-9,0.9c-0.4,0-0.7-0.2-0.7-0.6V9.8
					C78.5,9.5,78.8,9.2,79.1,9.2z"/>
			</g>
			<g>
				<path class="st2" d="M102.7,45.1l-8.9,0.8c-0.4,0-0.7-0.2-0.7-0.6v-36c0-0.6,0.5-0.9,1-0.5l22.4,18.5V10.1
					c0-0.3,0.3-0.6,0.6-0.6l9.1-0.8c0.4,0,0.7,0.2,0.7,0.6v36.6c0,0.7-0.5,0.9-1,0.5l-22.6-19v17C103.2,44.7,102.9,45,102.7,45.1z"
					/>
			</g>
			<g>
				<path class="st2" d="M44.2,9.2l8.9-0.8c0.4,0,0.7,0.2,0.7,0.6v21.5c0,2.7,0.1,6.4,5.5,6.4c3.4,0,5.1-2.8,5.1-5.5V10
					c0-0.3,0.3-0.6,0.6-0.6l8.9-1c0.4,0,0.7,0.2,0.7,0.6v22.4c0,4-0.3,7.3-3.8,10.5c-3,2.8-7.3,4.3-11.6,4.3c-4,0-8.6-0.8-11.6-3.4
					c-3.8-3.1-3.8-7-3.8-11.4V9.8C43.6,9.5,43.9,9.2,44.2,9.2z"/>
			</g>
		</g>
		<g>
			<g>
				<polygon class="st3" points="215.3,35.1 226.9,9.1 201.8,9.1 199.1,19.2 209.9,19.2 198.3,44.9 224.3,44.9 227,35.1 				"/>
			</g>
			<g>
				<path class="st3" d="M246.4,18.5c-4.3,0-6.8,2.9-6.8,6.3c0,3.5,2.5,10.9,6.8,10.9c5,0,6.8-7.4,6.8-10.9
					C253.2,21.4,250.7,18.5,246.4,18.5z M246.3,8.4c10.1,0,17.8,5.4,17.8,14.9c0,9.5-5.2,22.6-17.8,22.6c-12.9,0-17.8-13-17.8-22.6
					C228.4,13.8,234.6,8.4,246.3,8.4z"/>
			</g>
			<g>
				<path class="st3" d="M283.8,18.5c-4.3,0-6.8,2.9-6.8,6.3c0,3.5,2.5,10.9,6.8,10.9c5,0,6.8-7.4,6.8-10.9
					C290.6,21.4,288.1,18.5,283.8,18.5z M283.7,8.4c10.1,0,17.8,5.4,17.8,14.9c0,9.5-5.2,22.6-17.8,22.6c-12.9,0-17.8-13-17.8-22.6
					C265.8,13.8,272.1,8.4,283.7,8.4z"/>
			</g>
		</g>
	</g>
	<g>
		<path class="st3" d="M303.4,37.8c0.7,0,1.4,0.2,2,0.5c0.6,0.3,1.1,0.8,1.5,1.5c0.4,0.7,0.6,1.3,0.6,2c0,0.7-0.2,1.4-0.5,2
			c-0.4,0.6-0.9,1.1-1.5,1.5c-0.6,0.4-1.3,0.5-2,0.5c-0.7,0-1.4-0.2-2-0.5c-0.6-0.4-1.1-0.9-1.5-1.5c-0.4-0.6-0.5-1.3-0.5-2
			c0-0.7,0.2-1.4,0.5-2c0.4-0.7,0.9-1.2,1.5-1.5C302,38,302.7,37.8,303.4,37.8z M303.4,38.6c-0.6,0-1.1,0.1-1.6,0.4
			c-0.5,0.3-0.9,0.7-1.2,1.2c-0.3,0.5-0.4,1.1-0.4,1.6c0,0.6,0.1,1.1,0.4,1.6c0.3,0.5,0.7,0.9,1.2,1.2c0.5,0.3,1.1,0.4,1.6,0.4
			c0.6,0,1.1-0.1,1.6-0.4c0.5-0.3,0.9-0.7,1.2-1.2c0.3-0.5,0.4-1.1,0.4-1.6c0-0.6-0.1-1.1-0.4-1.6c-0.3-0.5-0.7-0.9-1.2-1.2
			C304.5,38.7,304,38.6,303.4,38.6z M301.6,44v-4.3h0.9c0.8,0,1.3,0,1.4,0c0.3,0,0.5,0.1,0.7,0.2c0.2,0.1,0.3,0.2,0.4,0.4
			c0.1,0.2,0.2,0.4,0.2,0.6c0,0.3-0.1,0.6-0.3,0.8c-0.2,0.2-0.5,0.4-0.9,0.4c0.1,0,0.2,0.1,0.3,0.2c0.1,0.1,0.2,0.2,0.3,0.3
			c0,0,0.1,0.2,0.3,0.5l0.5,0.9h-1.1l-0.4-0.7c-0.2-0.5-0.4-0.8-0.6-0.9c-0.2-0.1-0.4-0.2-0.6-0.2h-0.2V44H301.6z M302.4,41.6h0.4
			c0.5,0,0.8,0,0.9-0.1c0.1,0,0.2-0.1,0.3-0.2c0.1-0.1,0.1-0.2,0.1-0.3c0-0.1,0-0.2-0.1-0.3c-0.1-0.1-0.2-0.2-0.3-0.2
			c-0.1,0-0.4-0.1-0.9-0.1h-0.4V41.6z"/>
	</g>
	<g>
		<path class="st2" d="M140.2,51.3l-2.4,2.4l1.8-3.4l-0.2-0.3l-5.1,4.1l4.6-5.2l-3.7,1.9l3.1-2.7l-0.2-0.2l-7.4,3.8l6.9-4.5l0-0.1
			l-6.4,3.1l5.9-3.8l-0.2-0.2l-0.1-0.4l-7.8,2.1l7.7-3l0-0.1l-4.3,0.8l3.8-2l-0.2-0.2l-4.1,0.8l3.8-1.4l0-0.3l-4.5-0.4l4.6-0.6
			l0.2-1l-0.6,0l-0.6-1.8L135,36l-0.8-1.1l0.4-2.5L134,32c0,0,0.4-2.1,0.5-3.6c0.1-1.6,1.8-6.2,2.2-6.5c0.4-0.3,0.4-2.6,1.5-4.4
			c0.5-0.8,0.2-0.7,0-1.4c-0.4-1.1,0.2-1.6,0.4-1.8c0.2-0.2,1.5-1.8,2-2.6c0.6-0.8-1.1-3.1-1.1-3.1l-1-3.8l1.6-1.6
			c0,0,0.6-1.1,0.9-1.8l10.3,4.4l5.6-0.2l10.7,0.2l4.3-1.7l2.6-0.6l3.5,0.9l2.9,4.9l-11.9,43.4l1.9,3.4l-10.2,0.7
			c-0.8-1.2-1.6-2.4-1.6-2.4s3.7-1.2,3.9-1.7c0.2-0.5-0.2-2.9-0.2-2.9l-2.9,3.9l-3.6-1.7l-1.9,1.2l-1.8,2.5l-0.8-1.6l-1.9,1.9
			l-0.4-1.2l-1.9,2.3l-2.6-2.9l-1.4-1l-1.7-0.7l-1.6-1.3L140.2,51.3z"/>
	</g>
	<g>
		<g>
			<defs>
				<path id="SVGID_1_" d="M138.5,24.9c-0.1,0-0.2,0-0.2,0C138.3,25,138.5,25.1,138.5,24.9z M139.7,33.7c0,0-0.6-2.7-0.8-3.2
					c-0.2-0.6-0.7-0.8-0.9-2.5c-0.2-1.7-0.6-3.5-0.2-5.1c0.4-1.7,0.9-5.4,0.9-5.4l-0.2-0.7c0,0-0.2-0.3-0.4-1.1
					c-0.1-0.4,0.1-1,0.1-1l0.5-0.6l0.8-2.5l2.1-2.4l2.6-0.5l1.1-1.8l-5.1-5.2c0.2-0.6,0.1-0.7,0.3-0.7c0.5-0.2,5.4,2,5.4,2l4.6,2.1
					c0,0,2.1,0.1,3.5-0.2c1.4-0.2,1.2-1,3.6-1.2c2.4-0.2,3.6,0.3,5.8-0.3c1.3-0.4,5,0.8,5,0.8l1.8-0.8c0,0,3.4-1.3,6.1-0.9
					c2.7,0.4,5.1,8.1,5.1,8.1s3.9,2.6,5.9,3.4c0.4,0.2,0.9,0.3,1.4,0.5c1.6,1.2,3.3,2.2,3.3,2.2l3.7,3.3l-2.8,0.9l2.5,2.8
					c0.8,0.9-3.5,4.9-1.9,6c1.5,1.1,1.1,3.5,0.6,3.6c-0.6,0.1-1.9,5.6-1.9,5.6s-2.3,4-2.1,4.8c0.2,0.7,1.3,3.7,2,5.2l-0.7,0.1
					c-4.6-0.6-1.1,6-3,5.9c-4.2-0.1-17.1,2-20.5,0.7c-3.5-1.3,6.2-27.7,4.6-27c-1.5,0.7-3,1.2-4.8,0.2c-1.8-1-2.5,0-4,0.4
					c-1.5,0.4-4.6,4.2-4.6,4.2l-2.4,7.7c0,0-0.2,1.1-0.4,1.7c-0.2,0.6-6.1,2.7-7.1,2.2c-1-0.5-0.9-0.8,0.2-1.9
					c1-1.2,0.5-1.2-1.2-1.7c-1.7-0.5-1.3,1.4-1.3,1.4l-1.9,0.7c0,0,0.2-0.6-1.2-0.9c-1.4-0.4-1.3,0.8-3.1,0.7
					c-1.8-0.1-2.7-0.6-3-1.3c-0.3-0.7-0.5-2,0.1-3.6c0.2-0.7,1.2-2.5,2.2-4.3L139.7,33.7z M139.1,25.1c1.5,0.4,0.9,1,1.4,1.5
					c0.5,0.6,1.9,1.6,1.9,1.6l-0.1,1.2c0,0.1,0.1,0.2,0.1,0.3c0.2-0.3,0.3-0.6,0.5-0.7c0.9-1.3,0.6-3,0.5-3.6
					c-0.1-0.6-0.6-2.2-1-3.1c-0.3-0.9,1.1-3.8,1.1-3.8s0.7-2.2,0.7-2.4c-0.1-0.2,1.5-2.5,1.5-2.5l0.8-1.9c0,0-2.6,2.1-3.2,2.6
					c-0.6,0.5-1.5,1.9-1.9,3c-0.4,1.2-0.6,3.3-1.1,4.2c-0.4,0.9-1.3,1.3-1.3,1.3s-0.7,1.4-0.4,2.1c0,0.1,0,0.1,0,0.2
					C138.6,24.9,138.8,25,139.1,25.1z"/>
			</defs>
			<use xlink:href="#SVGID_1_"  style="overflow:visible;fill:#EE9D2E;"/>
			<clipPath id="SVGID_2_">
				<use xlink:href="#SVGID_1_"  style="overflow:visible;"/>
			</clipPath>
			<g class="st4">
				<path class="st5" d="M147.2,5.7c0,0-2.8-2.5-2.6-2.4c1.4,0.8-5.4-3.5-5.4-3.5l7.1,2.4l3.2,1.2c0,0,1.3,0.8,1.1,1.1
					C150.1,5.4,147.2,5.7,147.2,5.7z"/>
			</g>
		</g>
	</g>
	<g>
		<path class="st3" d="M152.6,27.9c-0.6-0.1-1.2-0.5-1.2-0.9c0-0.4,0.8-2.2,0.8-2.2l0.6-0.6c0,0,0-1.2-0.2-1.6
			c-0.1-0.4,0.1-2.5,0.1-2.5l1.1-3.8c0,0,1.8-1.5,2.3-2.1c0.5-0.5,1.5-1.4,2.7-1.8c1.3-0.4,2.7,0,2.7,0l0.5,1.6l1.7,0.2l-0.4,1.5
			l0.7,0.5l-0.1,1.6c0,0,0.5,0.5,0.2,1.5c-0.3,1-1.9,3.5-1.9,3.5s-0.1,0.7-0.9,1.2c-0.8,0.5-1.8,0.9-1.8,0.9s0.1,1-0.4,1.7
			c-0.5,0.7-1.5,1.9-1.7,2c-0.2,0.1-2.2,1.3-2.2,1.3s-1,0.4-1.3,0.2C153.8,30,153.2,28,152.6,27.9z"/>
	</g>
	<g>
		<path class="st6" d="M155.1,28.3l-1,1.6l-1.2,0.4c0,0-1.5,0.9-1.6,1.1c-0.1,0.2-0.8,0.2-0.8,0.2l0.9-1.8c0,0-0.7-0.5-0.2-0.9
			c0.5-0.4,1.5-1.6,1.7-2c0.2-0.4,1.1-1.7,1.6-2.2c0.6-0.5,2.1-1,2.5-1.1c0.3-0.1,2.1,0.4,2.1,0.4l1.2,0.6l2.4-0.8l1.2-0.3
			c0,0-0.8,2-0.8,2.4c0,0.4,0.3,3,0.3,3l-0.8,0.4c0,0,0-1.3-0.3-2c-0.3-0.7-1.2-1.8-1.3-1.3c-0.1,0.5-0.3,1.4-0.3,1.4
			s-1.6,1-2.1,1.2s-3.2,1.5-3.2,1.5l2.4-1.4l1.4-1.4l0.5-1.1l0.1-0.8l-1.8,2c0,0-0.8,0.4-1.6,0.6C155.5,28,155.1,28.3,155.1,28.3z"
			/>
	</g>
	<g>
		<path class="st6" d="M168.4,21.3c-0.4,0.7-1,1.6-1.3,1.9c-0.3,0.3-1.1,0.9-1.1,0.9s-0.7,1.4-0.5,2.5c0.2,1.1,0.5,1.6,0.5,1.6
			s0.7-0.6,1.3-0.3c0.6,0.3,0.6,0.6,0.7,0.8c0.1,0.2-0.1,1.9,0,2.7c0.1,0.9,0,2.3-0.1,2.5c-0.1,0.2-1.6,1.2-2,1.2
			c-0.4,0-1.6-0.5-2.4-0.6c-0.8-0.1-1.6,0-2,0c-0.4-0.1-1.2-0.7-1.9-1c-0.7-0.3-1.6-0.6-1.6-0.6l-1.1-0.9c0,0,0.5,1.3,1.5,1.8
			c1,0.5,1.4,0.8,1.7,1c0.3,0.1,0.8,0,1.4,0.7c0.6,0.7,1.3,1.3,1.4,1.8c0.1,0.5,0,2.1,0,2.1s0.7-2.2,1.6-2.4
			c0.9-0.3,1.2-0.7,1.6-0.2c0.4,0.4,0.4,0.9,1.2,1.6c0.8,0.7,1,1.1,1,1.1s-1,2.7-1.7,2.9c-0.7,0.3-2.2,1-2.5,1.2
			c-0.3,0.2-1.8,0.8,0.5,0.6c2.3-0.2,3.5-0.2,3.5-0.2s-0.2,1.4,0.8,2.1c1,0.7,3.6,1.1,3.6,1.1l1.9-0.3c0,0,0-1.1,1.1-1.3
			c1.1-0.2,2.5-1.6,2.6-2.2c0.1-0.6-0.4-2.8-0.5-3.9c0-1.1-0.2-3-0.1-3.8c0-0.7-0.7-5.9-0.7-7.1c0-1.2-0.6-4.4-1.3-5.6
			c-0.7-1.2-2.1-4.3-2.1-4.3l-1.2-1.9c0,0-0.4,1-1.5,0.4c-1-0.6-4-2.7-4-2.7s-1.2-2-2-2.5c-0.8-0.5-0.7-0.9-0.7-0.9l-0.2-0.9l-2.4,0
			c0,0,1.9,1.9,2.1,2.1c0.2,0.2,1.9,2.5,2.4,2.9c0.6,0.4,3,2.4,3.6,2.9c0.6,0.5,2,1.8,2.5,2.6c0.5,0.7,1.4,2,1.8,2.8
			c0.4,0.9,1.3,3,1.2,4.2c-0.2,1.1-1.5,0.7-1.1,1.7c0.4,0.9,0.6,3.8,0.7,5c0,1.3-0.1,3.3-0.1,3.3s0.3,4.2-0.1,4.6
			c-0.4,0.4-1-0.4-1.9-0.2c-1,0.2-2.4,0.7-2.5,1c-0.1,0.3-0.8,1.1-1.3,0.6c-0.4-0.5,0-1.4,0-1.9c0.1-0.5,1.1-2.4,1.3-2.7
			c0.2-0.3,0.5-2.2,0.5-2.2s-1-0.1-1.2-1.6c-0.2-1.5,0.5-6.5,0.8-7.1c0.2-0.6,0.5-2.5-0.1-3.6C169.1,23.2,168.8,20.7,168.4,21.3z"/>
	</g>
	<g>
		<path class="st6" d="M165.2,15.6c0,0-0.1,2.3-0.5,3.3c-0.4,0.9-0.8,1.3-0.3,2.5C165,22.5,166,22,166,22l1.1-2.1l-0.5-2.2
			L165.2,15.6z"/>
	</g>
	<g>
		<path class="st6" d="M155,35l1.7,1.1l1.1,1.8l1.2,0c0,0,1.7,1.2,2,1.7c0.3,0.5,1.9,1.7,1.9,1.7l0.1,1l1.2-1.1c0,0,1.5-0.6,1.1,0
			c-0.4,0.6-3,2-3,2s-0.9-0.4-0.9-0.6c0-0.2-0.8-2-0.9-2.4c-0.1-0.3-1-0.8-2.2-1.3c-1.2-0.6-1.5-1.3-2-1.8C155.8,36.6,155,35,155,35
			z"/>
	</g>
	<g>
		<path class="st6" d="M158.7,30.8c0.9,0.9,0.7,1.4,1.8,1.2c1-0.2,1.6-0.9,1.7-1.2c0.1-0.3,0.4-0.9-1-0.8
			C159.8,30.1,157.8,29.9,158.7,30.8z"/>
	</g>
	<g>
		<path class="st6" d="M147.9,39.9c0.1-0.5,0.4-1.9,0.6-2.5c0.2-0.6,1.2-2.8,1.4-2.4c0.5,1.2-0.5,2.9-0.8,3.4
			C148.7,39,147.9,40.4,147.9,39.9z"/>
	</g>
	<g>
		<g>
			<path class="st7" d="M156.4,41.4c0-0.3,0.3-0.6,0.6-0.6c0.3,0,0.6,0.3,0.6,0.6c0,0.3-0.3,0.6-0.6,0.6
				C156.7,41.9,156.4,41.7,156.4,41.4z"/>
			<path class="st7" d="M157.1,41.4"/>
		</g>
	</g>
	<g>
		<g>
			<path class="st7" d="M151.1,43.2c0-0.2,0.3-0.3,0.6-0.3c0.3,0,0.6,0.2,0.5,0.3c0,0.2-0.3,0.3-0.6,0.3
				C151.3,43.6,151.1,43.4,151.1,43.2z"/>
			<path class="st7" d="M151.6,43.2"/>
		</g>
	</g>
	<g>
		<g>
			<path class="st7" d="M149.9,43.6c0-0.1,0.2-0.2,0.4-0.2c0.2,0,0.4,0.1,0.4,0.2c0,0.1-0.2,0.2-0.4,0.2
				C150,43.8,149.9,43.7,149.9,43.6z"/>
			<path class="st7" d="M150.3,43.6"/>
		</g>
	</g>
	<g>
		<path class="st6" d="M180.7,27.6c0-0.3,0.8,0,0.8,0s2.2,2.7,3,4.3c0.8,1.6,0.4,3.4,0.4,3.4s1.9,4.4,2.7,6.1
			c0.8,1.8,2.3,2.6,2.3,2.6s3.3,4.3,3.4,4.7c0.1,0.5-2.6,1.4-2.6,1.4l-1.8,2.2l0.4,2.3c0,0-1.7,1-2,1.2c-0.3,0.2-7.6,0-7.6,0
			l-2.2,0.9l-4.2-0.3l1.7,1.3l-4.5-0.8l-1.3,2c0,0-6.5-0.8-7.5-1.4c-1-0.5-0.7,2-0.7,2l-3-2.4l-4.2,2.3l-0.5-2.3l-0.9,1.6l-2.3-1.7
			l-1.6,2.8l-0.6-2.7l-1.1,2.6l-0.6-3.4l-1,0.9l-0.5,0.9c0-0.3,0-0.9,0.2-1.5c0.3-0.8-0.7-1.7-1.1-2.5c-0.3-0.8-2.1-1.7-2.1-1.7
			l2.7,1.1l2.6,3.5l2-3.5l0.3,1.7l2-2.4l0.5,1.3l1.5-1.7l2.3-1l3.3,0.7c0,0,1.2-2.3,2.2-2.4c0.9-0.1,1-3.2,1.3-3.2
			c0.3,0,1,1.2,1.2,1.6c0.2,0.3-0.5,1.9-0.5,2.5c0,0.5-0.6,3.5,0.3,3.6c0.9,0.1,1.2-1,2.3-1.8c1.1-0.8,0.2-2.7,0.5-3.9
			c0.3-1.2,1-2.5,2.1-2.8c1.1-0.3,3.1-0.1,3.5,0.1c0.3,0.1-0.4,1.2-0.5,1.7c-0.1,0.5-0.8,3.8-0.5,4.3c0.3,0.5-0.5,1.7-0.3,2
			c0.2,0.3,1.6,0.8,3,0.9c1.3,0.1,3.1,0.3,4.8,0.4c1.7,0.1,5.1-0.2,6.7-0.4c1.5-0.1,3-1,3-1s-0.4,0.1-1.2-1.6
			c-0.8-1.7-0.9-3.2-0.3-4.1c0.6-0.9-0.1-2.8-0.3-4c-0.2-1.1-1-2.6-1.2-3.2c-0.2-0.7-0.4-2.5-1.1-3.6c-0.7-1.1-0.9-1.6-1.5-2.7
			c-0.6-1.1-0.9-3.6-1-4.2C181.4,29.8,180.7,27.9,180.7,27.6z"/>
	</g>
	<g>
		<path class="st6" d="M137.4,26.7l0,1.9l0,2.2c0,0,0.3,1.3,0.3,1.5c0,0.2,0.5,1.4,0.5,1.4l0.4,0.8l1.1-0.9l2.4-3.2l-3.3,5.9
			l-0.8,1.7c0,0-0.3-1.7-0.4-1.9c-0.1-0.3-0.6-3.1-0.7-3.4c-0.1-0.2-0.5-1.7-0.4-2.2c0.1-0.5,0.5-2.2,0.5-2.2L137.4,26.7z"/>
	</g>
	<g>
		<path class="st6" d="M143.4,27.7l-0.9-1.1l-0.5-0.9l-0.3-0.9l-0.5,0.1l-0.4,0.9l-0.1,0.6l1.4,1.2l0.3,0.6l-0.3,0.7l-0.9,0.5
			l-1.1,0.6l-0.8,0.9l-0.5-1l1.2-0.5l1.5-0.6l-0.3-0.7l-0.9-0.8c0,0-1.2-0.5-1.2-1.2c0-0.7-0.1-1.2,0.2-1.3c0.2-0.1,1-0.4,1-0.4
			l0.2-0.4l1.2-0.5L143,24l0.3,0.5l0.3,1.4L143.4,27.7z"/>
	</g>
	<g>
		<path class="st6" d="M152.7,11.2c0,0-1.8,2.1-2.1,2.2c-0.2,0.1-0.8,0.4-1,0.4c-0.2,0.1-0.8,1-0.8,1s-0.9,0.3-2.2,0.6
			c-1.2,0.3-1.6,0.9-1.6,1.3c0,0.3,1.2-0.1,1.2-0.1s1.8-0.8,1.9-0.9c0.1-0.1,0.7-0.8,0.4-0.2c-0.3,0.6-0.5,0.9-0.3,0.8
			c0.2-0.1,1.4-0.6,1.4-0.6l0.6-1.1l0.3,0.2c0,0-0.8,1-0.4,1.6c0.4,0.6,0.9,0.9,0.9,0.9l0.4,0.4l-0.1,3c0,0-1-0.3-1.3-0.5
			c-0.3-0.2-0.7-2.1-0.7-2.5c0-0.4-1,0.5-0.7,1.4c0.3,0.8,0.8,1.7,0.8,1.7l0.2-0.2c0,0,1.1,0.2,1.2,1c0.1,0.8,0,2,0.5,2
			c0.4,0,0.5-1.1,0.5-1.1s0.7-1,0.8-2.1c0.1-1-0.7-2.7-0.7-2.7s0.6-1.3,0.4-2c-0.2-0.7-1.4-0.6-1.4-0.6l0.7-1.9L152.7,11.2z"/>
	</g>
	<g>
		<path class="st6" d="M154.5,10.2c0,0-1.4,1.9-1.3,2.1c0.1,0.2,0.9,0.2,0.9,0.2l0.5-0.1c0,0,0.9,1.5,1.8,1.5c0.9,0,2.3,0.5,2.7,0.7
			c0.4,0.2,2,0.7,2,0.7s-0.1-2-1.6-2.6c-1.5-0.7-3.4-0.8-3.8-0.9c-0.3-0.1-1.6-0.6-1.5-0.7C154.3,10.8,154.5,10.2,154.5,10.2z"/>
	</g>
	<g>
		<path class="st6" d="M152.4,13.5c0,0.4,0.6,2,0.9,2.3c0.4,0.3,0,0.9,1,0.9c1,0,1.4-1.1,1.2-1.3c-0.2-0.1-1.4-0.4-2-0.9
			C152.9,13.9,152.4,13.1,152.4,13.5z"/>
	</g>
	<g>
		<path class="st6" d="M158,8.3c-0.8,0.1-1.3,0.4-1,0.9c0.2,0.5,0.4,1.5,0.4,1.5s2.2,1,2.7,1.2c0.5,0.2,1.2,0.3,1.2,0.3
			s0.1-1.9-0.9-2.7C159.5,8.7,158.8,8.2,158,8.3z"/>
	</g>
	<g>
		<path class="st6" d="M158.6,6.9l1.5,0.2l0.8,0.8l1.8,0.3l0.4-2c0,0-1.8-0.3-2.6-0.2C159.7,6,158.6,6.9,158.6,6.9z"/>
	</g>
	<g>
		<path class="st6" d="M160,4.3l1.9,0.1c0,0,0.3-0.4,1.3-0.4c1,0,2.7,0,2.7,0l1,0.7l0.8,0.7c0,0-3.1,0-3.5-0.1
			c-0.4-0.1-1.8-0.3-2.4-0.5c-0.7-0.2-0.8-0.1-0.8-0.1s-0.1,0.5-0.7,0.7c-0.6,0.2-1.3,0.1-1.8-0.2c-0.5-0.3-1.4-0.4-1.6-0.4
			c-0.3,0-1.8,0.1-2,0c-0.2,0-0.8-0.1,0.5-0.7c1.3-0.7,2-0.5,2-0.5L160,4.3z"/>
	</g>
	<g>
		<path class="st6" d="M149,7.1c1-0.3,1.4-1.1,2-1.2c0.6-0.2,1.5-0.2,2.5-0.2c0.9,0,2.2,0.4,2.2,0.4s-0.2,0.8-1.1,0.7
			c-0.9-0.1-3.6,0.3-3.8,0.4C150.5,7.3,148,7.5,149,7.1z"/>
	</g>
	<g>
		<path class="st6" d="M154,8.1c0.1,0.2,1,1.3,1,1.3l2.6-1.6l-0.3-0.5l-0.9-0.3C156.4,6.9,153.9,7.9,154,8.1z"/>
	</g>
	<g>
		<path class="st6" d="M152,8.2c0,0-1.8-0.1-2.4,0.2c-0.6,0.3-1.8,1.5-2,1.6s-2.6,1.8-2.6,1.8s3.1-0.7,3.7-1.1
			c0.7-0.4,2.3-1.1,2.4-1.4C151.2,9,152,8.2,152,8.2z"/>
	</g>
	<g>
		<path class="st6" d="M148.3,11.9l-1.6,0l-2.1,1.6c0,0,0.6,0.3,1.1,0.1c0.5-0.2,1.1-0.8,1.6-0.9c0.5-0.1,1.8,0.1,1.8,0.1
			s1.4-0.3,1.8-0.6c0.4-0.4,1.6-1.5,1.6-1.5l1.3-0.6c0,0-3.8,1.3-4.5,1.5C148.6,11.7,148.3,11.9,148.3,11.9z"/>
	</g>
	<g>
		<path class="st6" d="M156.6,22.2c0.1-0.2,1-0.5,1.6-0.9c0.5-0.4,0.2-1.2,0.1-1.4c-0.1-0.2-1-2-1.3-2.1c-0.3-0.2,0.8-1.1,0.8-1.1
			s1.2,0.1,1,1c-0.2,0.9,0.1,2.3,0,2.5c0,0.2,0,0.9,0,0.9l1.5-1.1l0.1,1c0,0,1.6,0.1,1.5,0.2c-0.1,0.1-0.4,1.6-0.4,1.6
			s-2-0.4-3.3-0.6C156.9,22,156.5,22.4,156.6,22.2z"/>
	</g>
	<g>
		<path class="st3" d="M156.9,24.2c0.3-0.2,1.2-0.1,1.6,0.1c0.4,0.2,0.7,0.6,0.7,0.6s-0.6,0.9-1,1.2c-1.1,0.8-2-0.2-2.5-0.2
			C155.1,25.9,156.5,24.4,156.9,24.2z"/>
	</g>
	<g>
		<defs>
			<path id="SVGID_3_" d="M142.1,24.1c0,0,0.1,1.3,0.3,1.6c0.2,0.3,1,1,1,1l-0.2-1.8L142.1,24.1z"/>
		</defs>
		<use xlink:href="#SVGID_3_"  style="overflow:visible;fill-rule:evenodd;clip-rule:evenodd;fill:#FFFFFF;"/>
		<clipPath id="SVGID_4_">
			<use xlink:href="#SVGID_3_"  style="overflow:visible;"/>
		</clipPath>
		<g class="st8">
			<g>
				<path class="st7" d="M142,25.5c0-0.2,0.1-0.3,0.3-0.3c0.2,0,0.3,0.1,0.3,0.3c0,0.2-0.1,0.3-0.3,0.3
					C142.1,25.8,142,25.7,142,25.5z"/>
				<path class="st7" d="M142.2,25.5"/>
			</g>
		</g>
	</g>
	<g>
		<g>
			<path class="st7" d="M155.7,25.5c0-0.3,0.3-0.6,0.7-0.6c0.4,0,0.7,0.3,0.7,0.6c0,0.3-0.3,0.6-0.7,0.6
				C156,26.1,155.7,25.8,155.7,25.5z"/>
			<path class="st7" d="M156.4,25.5"/>
		</g>
	</g>
	<g>
		<polygon class="st6" points="173,14 170.6,14.3 169.7,12.3 168.8,10.4 166.8,8.5 165.9,7.9 166.9,5 167.7,5.3 167.3,7.8 169,8.9 
			170.9,7.3 173.9,12.4 		"/>
	</g>
	<g>
		<path class="st3" d="M173,14.7l-1.3-2.3l-1.3-2.9c0,0-0.4-0.8-0.3-1.5c0.9-3.6,5.8-3.4,6.9-3.1c1,0.3,3.2,2.5,3.2,2.5l0.9,2
			l0.3,6.5l-1.3,3l-3.4-2L173,14.7z"/>
	</g>
	<g>
		<path class="st6" d="M173.3,14.6c-0.2-0.9,0.5-1.5,0.5-2.4c0-0.9,0.7-2.6,1.3-2.9c0.6-0.3,2.4-1.2,2.4-1.2l0.4,2.2
			c0,0-0.4,1.3-0.5,2.3c-0.1,1,0.5,2.5,0.2,2.8c-0.3,0.3,0.4,1.8,0.4,1.8l1.6,1.4l0.5-2.5c0,0-0.2-0.2-1.1-1.4
			c-0.9-1.2-0.6-1.5-0.5-2.1c0.1-0.6,0.4-1.8,0.4-1.8s0.6,0.5,0.8,0.2c0.1-0.3,1.1-1.8,1.1-1.8l-2.3-4.1c0,0-0.9-1-1.7-1.4
			c-0.8-0.4-3.4-0.1-3.8-0.1c-0.3-0.1-1.2-1.1-1.9-0.9c-0.7,0.2,3.3-0.7,3.3-0.7s2.9-0.2,3.6,0.7c0.7,0.8,1.4,1.8,2,2.8
			c0.5,1,0.8,2.1,0.8,2.1l0.7,3.4l1.8,2.1l1.7,0.4c0,0,0.4,1.3,1.6,2c1.2,0.6,2.2,0.1,3.5,0c1.3-0.1,5.7,4.1,5.7,4.4
			c-0.1,0.3-4.3-1-5.2-1.1c-0.8-0.1-3-0.7-3.8-1.1c-0.8-0.4-2.7-2.2-3-2.5c-0.3-0.3-1.1-0.9-1.1-0.9s0.1,2.1,0,2.5
			c-0.1,0.4-0.9,2.6-0.9,2.6l0.2,1.9c0,0-1.2,0-1.7-0.5c-0.5-0.5-2.6-1.7-2.6-1.7s-1.2-1.3-1.4-1.5c-0.2-0.1-2.3-1.5-2.3-1.5
			S173.5,15.6,173.3,14.6z"/>
	</g>
	<g>
		<path class="st6" d="M137.3,41c0,0,0.1,2.3,0.5,2.7c0.5,0.4,2.6,1.6,3,1.9c0.4,0.3,1.4,1,1.8,1c0.4,0,0.9-0.4,0.9-0.4
			s-1.6-1.1-1.2-1.4c0.4-0.4,0.3-0.7,1.5-0.7c1.3-0.1,1.9-0.4,2.5-1c0.6-0.6,0.3-1.5,1-1.3c0.7,0.2,0.9,0.5,0.7,1.2
			c-0.3,0.7-3.2,2.8-3.2,2.8l-1.4,1.1l0.9,1.7c0,0,1.2,1,1.8,1.4c0.7,0.4,3.6,1,4,1c0.4,0,0.9-0.3,0.9-0.3l1,0.4l1.2-0.9l0.8-0.2
			c0,0,0.5,0.4,1.2,0c0.6-0.4,2-1.6,2-1.6l0.9-1.4c0,0-0.7,0.5-1.2,0.7c-0.6,0.2-2.3,1.2-2.6,1.3c-0.2,0.1-2.4,0.8-3,0.8
			c-0.6,0-1.4-0.2-2-0.3c-0.6-0.1-1-0.4-1-0.4l1.3-0.1l2.1,0.2c0,0,1.2-0.3,2.1-0.7c1-0.5,1.9-0.8,2.1-1c0.2-0.3,0.9-1,0.9-1
			s-3.4,1.3-3.6,1.3c-0.2,0-2.7,0.6-2.7,0.6s-1.1-0.3-1.6-0.4c-0.5-0.1-2.3,0.1-2.3,0.1l0.1-0.3c0,0,2.3-0.2,3.4-0.3
			c1.1-0.1,1.1,0,3.5-0.6c2.4-0.6,4-1.6,4-1.6s0.7-0.5,1-0.7c0.2-0.3,0.6-0.6,0.6-0.6s-0.2-0.8-0.5-0.7c-0.3,0.1-1.9,0.8-1.9,0.8
			s-2.5,1-3.7,1.2c-1.3,0.2-2.9,0.7-3.1,0.7c-0.2,0-1.1,0.1-1.1,0.1l0.2-0.7l5-1.6l1.9-0.4c0,0-0.3-0.4-0.8-0.7
			c-0.5-0.3-1.7-1.4-0.4-1.2c1.3,0.2,1.8,0.4,2.2,0.6c0.4,0.2,1.1,0.5,1.1,0.5s1.6-0.1,1.6,0.5s0.1,1.2,0.1,1.2l-0.5,1.6
			c0,0-0.9,2.6-1.3,2.9c-0.4,0.3-1.9,1.4-1.9,1.4l-2.6,1.2c0,0-1.9,0.3-2.7,0.3c-0.7,0-3.3,0-3.3,0l-1.8-0.7l-1-0.2
			c0,0-0.7,0.3-1.2,0.5c-0.5,0.2-1.4,0-1.7-0.2c-0.4-0.2-0.8-0.9-0.8-0.9s0.8,0.7,1.3,0.5c0.5-0.2,1-0.9,1.4-1.5
			c0.4-0.6,0-1.2,0-1.2l-0.6-0.7c0,0-1.3-0.5-1.9-0.8c-0.5-0.3-3.4-2-3.4-2s-0.4-1.5-0.4-1.9C137.2,42.2,137.3,41,137.3,41z"/>
	</g>
	<g>
		<polygon class="st6" points="143,24.1 142.9,22.3 143.8,17.4 142.4,20.2 142.1,22.4 		"/>
	</g>
	<g>
		<path class="st6" d="M140.4,21.2l0.5-2.4l0.1-1c0,0-2.2,2.4-2.1,3C139.1,21.5,140.4,21.2,140.4,21.2z"/>
	</g>
	<g>
		<path class="st6" d="M139.4,18.1c0,0,2.8-2.5,3-3.1c0.2-0.6,3-4.5,3-4.5l2.2-1.4c0,0-2.6,0.5-3.3,1.7c-0.7,1.2-2.6,4.3-2.6,4.3
			L139.4,18.1z"/>
	</g>
	<g>
		<g>
			<path class="st6" d="M138.4,17c0,0-0.6,0.4-0.9,2.1c-0.3,1.7-1,2.7-1,2.7s-1.6,3.4-2,7.3c-0.3,3-0.4,2.9-0.4,2.9h0.6l-0.4,2.8
				l0.7,0.9l-0.3,2.5l0.6,2.1l0.7-0.1l-0.1,0.9l-4.9,0.9l4.7,0.2l-3.5,1.7l3.8-0.7l0.2,0.4l-3.5,1.8l3.9-0.8l-7.4,3.1l7.4-2l0.4,0.6
				l-5.7,3.8l6.3-3.1l-6.4,4.4l6.9-3.7l0.3,0.4l-2.9,2.3l3.3-1.6l0.2,0.3l-4.6,4.6l5-3.8l0.3,0.4l-2,3.4l2.5-2.5
				c0,0,0.8,0.9,1.4,1.1c0.7,0.1,0.4-0.4,0.4-0.4s-0.4,0.4-1.2-1.1c-0.7-1.4-2.6-4.1-2.6-4.1s-1.3-1.6-1.3-2.1
				c0-0.5-0.3-2.7-0.3-2.7l-0.5-2.6l-0.7-0.7l0.3-3.1l-0.7-1l0.3-2.7l-0.4-1.1c0,0,0.3-4.5,0.9-5.5c0.6-1,1.6-3.8,1.6-3.8l0.5-2.2
				L138.4,17z"/>
		</g>
	</g>
	<g>
		<path class="st6" d="M140.4,1.4l-0.8,2l-1.3,1.3l0.6,1.5l-0.4,0.9l1.2,3.2c0,0,0.3-0.1,0.4,0.2c0.1,0.5-0.2,1.1-0.2,1.1l1.1-1.1
			l-0.3-1.3l-1-1.2V6.6L138.8,5l1.2-1.4l0.7-1.8L140.4,1.4z"/>
	</g>
</g>
</svg>
